<?xml version="1.0" encoding="UTF-8" standalone="no"?>
<!DOCTYPE svg PUBLIC "-//W3C//DTD SVG 1.1//EN"
 "http://www.w3.org/Graphics/SVG/1.1/DTD/svg11.dtd">
<!-- Generated by graphviz version 2.42.4 (0)
 -->
<!-- Title: ecx__core::kte Pages: 1 -->
<svg width="406pt" height="120pt"
 viewBox="0.00 0.00 406.00 120.38" xmlns="http://www.w3.org/2000/svg" xmlns:xlink="http://www.w3.org/1999/xlink">
<g id="graph0" class="graph" transform="scale(1 1) rotate(0) translate(4 116.38)">
<title>ecx__core::kte</title>
<!-- Node1 -->
<g id="Node000001" class="node">
<title>Node1</title>
<g id="a_Node000001"><a xlink:title=" ">
<polygon fill="#999999" stroke="#666666" points="398,-74 311,-74 311,-55 398,-55 398,-74"/>
<text text-anchor="middle" x="354.5" y="-62" font-family="Helvetica,sans-Serif" font-size="10.00">ecx__core::kte</text>
</a>
</g>
</g>
<!-- Node2 -->
<g id="Node000002" class="node">
<title>Node2</title>
<g id="a_Node000002"><a xlink:href="namespaceecx____kinetics.html#a0e843af382fe1c60107caf82c26a4406" target="_top" xlink:title=" ">
<polygon fill="white" stroke="#666666" points="101,-75 0,-75 0,-56 101,-56 101,-75"/>
<text text-anchor="middle" x="50.5" y="-63" font-family="Helvetica,sans-Serif" font-size="10.00">ecx__kinetics::bv</text>
</a>
</g>
</g>
<!-- Node1&#45;&gt;Node2 -->
<g id="edge1_Node000001_Node000002" class="edge">
<title>Node1&#45;&gt;Node2</title>
<g id="a_edge1_Node000001_Node000002"><a xlink:title=" ">
<path fill="none" stroke="#63b8ff" d="M330.25,-79.21C315.15,-87.87 294.68,-97.99 275,-102.5 215.22,-116.21 197.06,-114.94 137,-102.5 111.82,-97.28 84.93,-84.27 68.18,-75.16"/>
<polygon fill="#63b8ff" stroke="#63b8ff" points="332.1,-82.18 338.91,-74.06 328.52,-76.16 332.1,-82.18"/>
</a>
</g>
</g>
<!-- Node3 -->
<g id="Node000003" class="node">
<title>Node3</title>
<g id="a_Node000003"><a xlink:href="namespaceecx____capi__core.html#ac01d7296573c7339445e4b60794c60a9" target="_top" xlink:title=" ">
<polygon fill="white" stroke="#666666" points="275,-93 137,-93 137,-74 275,-74 275,-93"/>
<text text-anchor="middle" x="206" y="-81" font-family="Helvetica,sans-Serif" font-size="10.00">ecx__capi_core::capi_kte</text>
</a>
</g>
</g>
<!-- Node1&#45;&gt;Node3 -->
<g id="edge2_Node000001_Node000003" class="edge">
<title>Node1&#45;&gt;Node3</title>
<g id="a_edge2_Node000001_Node000003"><a xlink:title=" ">
<path fill="none" stroke="#63b8ff" d="M300.81,-71.33C292.49,-72.41 283.79,-73.54 275.18,-74.66"/>
<polygon fill="#63b8ff" stroke="#63b8ff" points="301.27,-74.8 310.73,-70.05 300.37,-67.86 301.27,-74.8"/>
</a>
</g>
</g>
<!-- Node4 -->
<g id="Node000004" class="node">
<title>Node4</title>
<g id="a_Node000004"><a xlink:href="namespaceecx____kinetics.html#a90c283377f03bf931628a2e6e85b7117" target="_top" xlink:title=" ">
<polygon fill="white" stroke="#666666" points="265.5,-56 146.5,-56 146.5,-37 265.5,-37 265.5,-56"/>
<text text-anchor="middle" x="206" y="-44" font-family="Helvetica,sans-Serif" font-size="10.00">ecx__kinetics::nernst</text>
</a>
</g>
</g>
<!-- Node1&#45;&gt;Node4 -->
<g id="edge3_Node000001_Node000004" class="edge">
<title>Node1&#45;&gt;Node4</title>
<g id="a_edge3_Node000001_Node000004"><a xlink:title=" ">
<path fill="none" stroke="#63b8ff" d="M300.55,-57.99C289.2,-56.6 277.16,-55.12 265.61,-53.7"/>
<polygon fill="#63b8ff" stroke="#63b8ff" points="300.38,-61.5 310.73,-59.25 301.23,-54.55 300.38,-61.5"/>
</a>
</g>
</g>
<!-- Node5 -->
<g id="Node000005" class="node">
<title>Node5</title>
<g id="a_Node000005"><a xlink:href="namespaceecx____kinetics.html#a66f6bb19c2c71d11c4ea6fa66fb860a7" target="_top" xlink:title=" ">
<polygon fill="white" stroke="#666666" points="259,-19 153,-19 153,0 259,0 259,-19"/>
<text text-anchor="middle" x="206" y="-7" font-family="Helvetica,sans-Serif" font-size="10.00">ecx__kinetics::sbv</text>
</a>
</g>
</g>
<!-- Node1&#45;&gt;Node5 -->
<g id="edge4_Node000001_Node000005" class="edge">
<title>Node1&#45;&gt;Node5</title>
<g id="a_edge4_Node000001_Node000005"><a xlink:title=" ">
<path fill="none" stroke="#63b8ff" d="M325.69,-50.45C310.88,-43.3 292.21,-34.8 275,-28.5 265.45,-25 254.94,-21.77 245.1,-19.01"/>
<polygon fill="#63b8ff" stroke="#63b8ff" points="324.3,-53.66 334.82,-54.92 327.38,-47.38 324.3,-53.66"/>
</a>
</g>
</g>
<!-- Node5&#45;&gt;Node2 -->
<g id="edge5_Node000005_Node000002" class="edge">
<title>Node5&#45;&gt;Node2</title>
<g id="a_edge5_Node000005_Node000002"><a xlink:title=" ">
<path fill="none" stroke="#63b8ff" d="M157.35,-21.93C150.47,-23.98 143.52,-26.19 137,-28.5 114.13,-36.6 88.71,-47.91 71.57,-55.89"/>
<polygon fill="#63b8ff" stroke="#63b8ff" points="158.67,-25.19 167.3,-19.05 156.72,-18.46 158.67,-25.19"/>
</a>
</g>
</g>
</g>
</svg>
