<?xml version="1.0" encoding="UTF-8" standalone="no"?>
<!DOCTYPE svg PUBLIC "-//W3C//DTD SVG 1.1//EN"
 "http://www.w3.org/Graphics/SVG/1.1/DTD/svg11.dtd">
<!-- Generated by graphviz version 2.42.4 (0)
 -->
<!-- Title: ecx__capi_eis::capi_z Pages: 1 -->
<svg width="235pt" height="45pt"
 viewBox="0.00 0.00 235.00 45.00" xmlns="http://www.w3.org/2000/svg" xmlns:xlink="http://www.w3.org/1999/xlink">
<g id="graph0" class="graph" transform="scale(1 1) rotate(0) translate(4 41)">
<title>ecx__capi_eis::capi_z</title>
<!-- Node1 -->
<g id="Node000001" class="node">
<title>Node1</title>
<g id="a_Node000001"><a xlink:title=" ">
<polygon fill="#999999" stroke="#666666" points="121,-19 0,-19 0,0 121,0 121,-19"/>
<text text-anchor="middle" x="60.5" y="-7" font-family="Helvetica,sans-Serif" font-size="10.00">ecx__capi_eis::capi_z</text>
</a>
</g>
</g>
<!-- Node2 -->
<g id="Node000002" class="node">
<title>Node2</title>
<g id="a_Node000002"><a xlink:href="namespaceecx____eis.html#a62c57fb808348927065ac5e8cae43c02" target="_top" xlink:title=" ">
<polygon fill="white" stroke="#666666" points="227,-19 157,-19 157,0 227,0 227,-19"/>
<text text-anchor="middle" x="192" y="-7" font-family="Helvetica,sans-Serif" font-size="10.00">ecx__eis::z</text>
</a>
</g>
</g>
<!-- Node1&#45;&gt;Node2 -->
<g id="edge1_Node000001_Node000002" class="edge">
<title>Node1&#45;&gt;Node2</title>
<g id="a_edge1_Node000001_Node000002"><a xlink:title=" ">
<path fill="none" stroke="#63b8ff" d="M121.32,-9.5C129.9,-9.5 138.59,-9.5 146.79,-9.5"/>
<polygon fill="#63b8ff" stroke="#63b8ff" points="146.86,-13 156.86,-9.5 146.86,-6 146.86,-13"/>
</a>
</g>
</g>
<!-- Node2&#45;&gt;Node2 -->
<g id="edge2_Node000002_Node000002" class="edge">
<title>Node2&#45;&gt;Node2</title>
<g id="a_edge2_Node000002_Node000002"><a xlink:title=" ">
<path fill="none" stroke="#63b8ff" d="M171.96,-19.08C162.22,-27.73 168.89,-37 192,-37 206.8,-37 214.86,-33.2 216.18,-28.19"/>
<polygon fill="#63b8ff" stroke="#63b8ff" points="219.36,-26.73 212.04,-19.08 212.99,-29.63 219.36,-26.73"/>
</a>
</g>
</g>
</g>
</svg>
