<?xml version="1.0" encoding="UTF-8" standalone="no"?>
<!DOCTYPE svg PUBLIC "-//W3C//DTD SVG 1.1//EN"
 "http://www.w3.org/Graphics/SVG/1.1/DTD/svg11.dtd">
<!-- Generated by graphviz version 2.42.4 (0)
 -->
<!-- Title: ecx__kinetics::bv Pages: 1 -->
<svg width="374pt" height="46pt"
 viewBox="0.00 0.00 374.00 46.00" xmlns="http://www.w3.org/2000/svg" xmlns:xlink="http://www.w3.org/1999/xlink">
<g id="graph0" class="graph" transform="scale(1 1) rotate(0) translate(4 42)">
<title>ecx__kinetics::bv</title>
<!-- Node1 -->
<g id="Node000001" class="node">
<title>Node1</title>
<g id="a_Node000001"><a xlink:title=" ">
<polygon fill="#999999" stroke="#666666" points="101,-38 0,-38 0,-19 101,-19 101,-38"/>
<text text-anchor="middle" x="50.5" y="-26" font-family="Helvetica,sans-Serif" font-size="10.00">ecx__kinetics::bv</text>
</a>
</g>
</g>
<!-- Node2 -->
<g id="Node000002" class="node">
<title>Node2</title>
<g id="a_Node000002"><a xlink:href="namespaceecx____core.html#a3c976ca38c27b8c39d1a5bcb7653b725" target="_top" xlink:title=" ">
<polygon fill="white" stroke="#666666" points="366,-38 279,-38 279,-19 366,-19 366,-38"/>
<text text-anchor="middle" x="322.5" y="-26" font-family="Helvetica,sans-Serif" font-size="10.00">ecx__core::kte</text>
</a>
</g>
</g>
<!-- Node1&#45;&gt;Node2 -->
<g id="edge1_Node000001_Node000002" class="edge">
<title>Node1&#45;&gt;Node2</title>
<g id="a_edge1_Node000001_Node000002"><a xlink:title=" ">
<path fill="none" stroke="#63b8ff" d="M101.02,-28.5C148.64,-28.5 220.35,-28.5 268.95,-28.5"/>
<polygon fill="#63b8ff" stroke="#63b8ff" points="268.96,-32 278.96,-28.5 268.96,-25 268.96,-32"/>
</a>
</g>
</g>
<!-- Node3 -->
<g id="Node000003" class="node">
<title>Node3</title>
<g id="a_Node000003"><a xlink:href="namespaceecx____kinetics.html#a66f6bb19c2c71d11c4ea6fa66fb860a7" target="_top" xlink:title=" ">
<polygon fill="white" stroke="#666666" points="243,-19 137,-19 137,0 243,0 243,-19"/>
<text text-anchor="middle" x="190" y="-7" font-family="Helvetica,sans-Serif" font-size="10.00">ecx__kinetics::sbv</text>
</a>
</g>
</g>
<!-- Node1&#45;&gt;Node3 -->
<g id="edge2_Node000001_Node000003" class="edge">
<title>Node1&#45;&gt;Node3</title>
<g id="a_edge2_Node000001_Node000003"><a xlink:title=" ">
<path fill="none" stroke="#63b8ff" d="M101.14,-21.64C109.43,-20.49 118.13,-19.29 126.69,-18.11"/>
<polygon fill="#63b8ff" stroke="#63b8ff" points="127.22,-21.57 136.65,-16.73 126.26,-14.64 127.22,-21.57"/>
</a>
</g>
</g>
<!-- Node3&#45;&gt;Node2 -->
<g id="edge3_Node000003_Node000002" class="edge">
<title>Node3&#45;&gt;Node2</title>
<g id="a_edge3_Node000003_Node000002"><a xlink:title=" ">
<path fill="none" stroke="#63b8ff" d="M243.33,-17.12C251.7,-18.34 260.36,-19.6 268.74,-20.82"/>
<polygon fill="#63b8ff" stroke="#63b8ff" points="268.38,-24.3 278.78,-22.28 269.39,-17.38 268.38,-24.3"/>
</a>
</g>
</g>
</g>
</svg>
